----------------------------------

VLADO GEORGIEV - ZIVIM SAD

2013

FORMAT: MPG (kompatibilan)

----------------------------------

INFO:

Format                                   : MPEG-PS
File size                                : 69.3 MiB
Duration                                 : 5mn 34s
Overall bit rate mode                    : Variable
Overall bit rate                         : 1 740 Kbps

Video
ID                                       : 224 (0xE0)
Format                                   : MPEG Video
Format version                           : Version 1
Format settings, BVOP                    : No
Format settings, Matrix                  : Default
Format settings, GOP                     : N=12
Duration                                 : 5mn 34s
Bit rate mode                            : Variable
Bit rate                                 : 1 577 Kbps
Width                                    : 720 pixels
Height                                   : 408 pixels
Display aspect ratio                     : 16:9
Frame rate                               : 25.000 fps
Color space                              : YUV
Bit depth                                : 8 bits
Scan type                                : Progressive
Compression mode                         : Lossy
Bits/(Pixel*Frame)                       : 0.215
Stream size                              : 62.8 MiB (91%)

Audio
ID                                       : 192 (0xC0)
Format                                   : MPEG Audio
Format version                           : Version 1
Format profile                           : Layer 2
Duration                                 : 5mn 34s
Bit rate mode                            : Constant
Bit rate                                 : 128 Kbps
Channel(s)                               : 2 channels
Sampling rate                            : 44.1 KHz
Compression mode                         : Lossy
Stream size                              : 5.10 MiB (7%)

---------------------------------------------------------------

SAMPLE:


---------------------------------------------------------------

- VLADO GEORGIEV I NJEGOVA NOVA PESMA. KLIP IZ EMISIJE -VECE SA IVANOM IVANOVICEM-, POSTAVLJEN ZA LJUDE KOJI ZELE DA IMAJU U SVOJOJ KOLEKCIJI, TORRENT SEEDUJEM SA SOPSTVENOG PC-JA, TAKO DA OVAJ TORRENT CE ISKLJUCIVO ZAVISITI OD LJUDI KOJI BUDU PREUZELI OD MENE, I TAKO DALJE. UGODAN DOWNLOAD.

MAXLINE @ SRBIJA